# xmcd
#
# Track frame offsets:
#	150
#	16003
#	33295
#	51908
#	73715
#	92455
#	112625
#	135813
#	155788
#	173450
#	192980
#	209233
#	229263
#	248865
#
# Disc length: 3562 seconds
#
# Revision: 48
# Processed by: cddbd v1.5.2PL0 Copyright (c) Steve Scherf et al.
# Submitted via: audiograbber 1.82.01
#
DISCID=b00de80e
DTITLE=Mariah Carey - Greatest Hits [CD1)
DYEAR=2001
DGENRE=Pop
TTITLE0=Vision Of love
TTITLE1=Love Takes Time
TTITLE2=Someday
TTITLE3=I Don't Wanna Cry
TTITLE4=Emotions
TTITLE5=Can't Let Go
TTITLE6=Make It Happen
TTITLE7=I'll Be There (featuring Trey Lorenz)
TTITLE8=Dreamlover
TTITLE9=Hero
TTITLE10=Without You
TTITLE11=Anytime You Need A Friend
TTITLE12=Endless Love (duet with Luther Vandross)
TTITLE13=Fantasy
EXTD=YEAR: 2001
EXTT0=
EXTT1=
EXTT2=
EXTT3=
EXTT4=
EXTT5=
EXTT6=
EXTT7=
EXTT8=
EXTT9=
EXTT10=
EXTT11=
EXTT12=
EXTT13=
PLAYORDER=
